<svg xmlns="http://www.w3.org/2000/svg" xmlns:xlink="http://www.w3.org/1999/xlink" width="500" zoomAndPan="magnify" viewBox="0 0 375 374.999991" height="500" preserveAspectRatio="xMidYMid meet" version="1.0"><defs><g/><clipPath id="35a698ddd2"><path d="M 3.945312 169.546875 L 89.070312 169.546875 L 89.070312 279.882812 L 3.945312 279.882812 Z M 3.945312 169.546875 " clip-rule="nonzero"/></clipPath><clipPath id="ebc238898e"><path d="M 21.195312 169.546875 L 71.820312 169.546875 C 81.347656 169.546875 89.070312 177.269531 89.070312 186.796875 L 89.070312 262.632812 C 89.070312 272.160156 81.347656 279.882812 71.820312 279.882812 L 21.195312 279.882812 C 11.667969 279.882812 3.945312 272.160156 3.945312 262.632812 L 3.945312 186.796875 C 3.945312 177.269531 11.667969 169.546875 21.195312 169.546875 Z M 21.195312 169.546875 " clip-rule="nonzero"/></clipPath><clipPath id="3179659ee6"><path d="M 98.332031 115.191406 L 183.457031 115.191406 L 183.457031 280.289062 L 98.332031 280.289062 Z M 98.332031 115.191406 " clip-rule="nonzero"/></clipPath><clipPath id="a59c005b73"><path d="M 115.582031 115.191406 L 166.207031 115.191406 C 175.730469 115.191406 183.457031 122.914062 183.457031 132.441406 L 183.457031 263.039062 C 183.457031 272.566406 175.730469 280.289062 166.207031 280.289062 L 115.582031 280.289062 C 106.054688 280.289062 98.332031 272.566406 98.332031 263.039062 L 98.332031 132.441406 C 98.332031 122.914062 106.054688 115.191406 115.582031 115.191406 Z M 115.582031 115.191406 " clip-rule="nonzero"/></clipPath><clipPath id="909cf83df9"><path d="M 192.730469 59.210938 L 277.855469 59.210938 L 277.855469 279.882812 L 192.730469 279.882812 Z M 192.730469 59.210938 " clip-rule="nonzero"/></clipPath><clipPath id="8c1a9e2a01"><path d="M 209.980469 59.210938 L 260.605469 59.210938 C 270.132812 59.210938 277.855469 66.933594 277.855469 76.460938 L 277.855469 262.632812 C 277.855469 272.160156 270.132812 279.882812 260.605469 279.882812 L 209.980469 279.882812 C 200.453125 279.882812 192.730469 272.160156 192.730469 262.632812 L 192.730469 76.460938 C 192.730469 66.933594 200.453125 59.210938 209.980469 59.210938 Z M 209.980469 59.210938 " clip-rule="nonzero"/></clipPath><clipPath id="dda02807b2"><path d="M 285.734375 4.042969 L 370.855469 4.042969 L 370.855469 280.289062 L 285.734375 280.289062 Z M 285.734375 4.042969 " clip-rule="nonzero"/></clipPath><clipPath id="5d46ed21ff"><path d="M 302.984375 4.042969 L 353.605469 4.042969 C 363.132812 4.042969 370.855469 11.765625 370.855469 21.292969 L 370.855469 263.039062 C 370.855469 272.566406 363.132812 280.289062 353.605469 280.289062 L 302.984375 280.289062 C 293.457031 280.289062 285.734375 272.566406 285.734375 263.039062 L 285.734375 21.292969 C 285.734375 11.765625 293.457031 4.042969 302.984375 4.042969 Z M 302.984375 4.042969 " clip-rule="nonzero"/></clipPath></defs><rect x="-37.5" width="450" fill="#ffffff" y="-37.499999" height="449.999989" fill-opacity="1"/><rect x="-37.5" width="450" fill="#04383f" y="-37.499999" height="449.999989" fill-opacity="1"/><g clip-path="url(#35a698ddd2)"><g clip-path="url(#ebc238898e)"><path fill="#ffa500" d="M 3.945312 169.546875 L 89.070312 169.546875 L 89.070312 279.882812 L 3.945312 279.882812 Z M 3.945312 169.546875 " fill-opacity="1" fill-rule="nonzero"/></g></g><g clip-path="url(#3179659ee6)"><g clip-path="url(#a59c005b73)"><path fill="#d9d9d9" d="M 98.332031 115.191406 L 183.457031 115.191406 L 183.457031 280.289062 L 98.332031 280.289062 Z M 98.332031 115.191406 " fill-opacity="1" fill-rule="nonzero"/></g></g><g clip-path="url(#909cf83df9)"><g clip-path="url(#8c1a9e2a01)"><path fill="#d9d9d9" d="M 192.730469 59.210938 L 277.855469 59.210938 L 277.855469 279.882812 L 192.730469 279.882812 Z M 192.730469 59.210938 " fill-opacity="1" fill-rule="nonzero"/></g></g><g clip-path="url(#dda02807b2)"><g clip-path="url(#5d46ed21ff)"><path fill="#d9d9d9" d="M 285.734375 4.042969 L 370.855469 4.042969 L 370.855469 280.289062 L 285.734375 280.289062 Z M 285.734375 4.042969 " fill-opacity="1" fill-rule="nonzero"/></g></g><g fill="#d9d9d9" fill-opacity="1"><g transform="translate(2.116171, 351.64217)"><g><path d="M 20.65625 -33.71875 L 36.140625 -33.71875 C 39.109375 -33.71875 41.148438 -34.554688 42.265625 -36.234375 C 43.378906 -37.921875 43.9375 -40.472656 43.9375 -43.890625 C 43.9375 -50.398438 41.503906 -53.65625 36.640625 -53.65625 L 20.65625 -53.65625 Z M 8.0625 0 L 8.0625 -62.59375 L 35.078125 -62.59375 C 43.160156 -62.59375 48.664062 -60.953125 51.59375 -57.671875 C 54.519531 -54.398438 55.984375 -49.957031 55.984375 -44.34375 C 55.984375 -38.726562 55.171875 -34.640625 53.546875 -32.078125 C 51.921875 -29.523438 49.664062 -27.679688 46.78125 -26.546875 L 58.875 0 L 45.8125 0 L 34.8125 -24.71875 L 20.65625 -24.71875 L 20.65625 0 Z M 8.0625 0 "/></g></g></g><g fill="#d9d9d9" fill-opacity="1"><g transform="translate(65.048344, 351.64217)"><g><path d="M 16.25 -12.46875 C 16.25 -8.820312 18.226562 -7 22.1875 -7 C 23.738281 -7 25.375 -7.40625 27.09375 -8.21875 C 28.820312 -9.039062 30.179688 -10.203125 31.171875 -11.703125 L 31.171875 -23.078125 C 29.816406 -21.972656 27.425781 -20.789062 24 -19.53125 C 20.582031 -18.269531 18.4375 -17.109375 17.5625 -16.046875 C 16.6875 -14.992188 16.25 -13.800781 16.25 -12.46875 Z M 32.109375 -5.046875 C 30.773438 -3.316406 28.867188 -1.878906 26.390625 -0.734375 C 23.921875 0.398438 20.921875 0.96875 17.390625 0.96875 C 13.859375 0.96875 10.867188 -0.171875 8.421875 -2.453125 C 5.972656 -4.742188 4.75 -7.671875 4.75 -11.234375 C 4.75 -14.796875 5.859375 -17.648438 8.078125 -19.796875 C 10.296875 -21.953125 14.546875 -24.019531 20.828125 -26 C 24.640625 -27.21875 27.316406 -28.304688 28.859375 -29.265625 C 30.398438 -30.222656 31.171875 -31.550781 31.171875 -33.25 C 31.171875 -36.757812 28.78125 -38.5 24 -38.46875 C 21.3125 -38.46875 19.457031 -37.953125 18.4375 -36.921875 C 17.425781 -35.890625 16.921875 -34.394531 16.921875 -32.4375 L 16.921875 -30.65625 L 6.109375 -30.65625 L 6.109375 -32.015625 C 6.109375 -36.566406 7.617188 -40.125 10.640625 -42.6875 C 13.671875 -45.25 18.320312 -46.53125 24.59375 -46.53125 C 30.875 -46.53125 35.429688 -45.195312 38.265625 -42.53125 C 41.109375 -39.875 42.53125 -36.0625 42.53125 -31.09375 L 42.53125 -13.0625 C 42.53125 -11.03125 42.785156 -9.6875 43.296875 -9.03125 C 43.804688 -8.382812 44.785156 -8.0625 46.234375 -8.0625 L 45.765625 0.34375 L 43.34375 0.34375 C 40.207031 0.34375 37.757812 -0.0859375 36 -0.953125 C 34.25 -1.816406 32.953125 -3.179688 32.109375 -5.046875 Z M 32.109375 -5.046875 "/></g></g></g><g fill="#d9d9d9" fill-opacity="1"><g transform="translate(114.834309, 351.64217)"><g><path d="M 28.15625 0.515625 C 21.226562 0.515625 16.265625 -0.53125 13.265625 -2.625 C 10.273438 -4.71875 8.78125 -8.664062 8.78125 -14.46875 L 8.78125 -38.21875 L 2.71875 -38.21875 L 2.71875 -45.546875 L 9.125 -45.546875 L 10.171875 -60.1875 L 20.3125 -60.1875 L 20.3125 -45.546875 L 31.125 -45.546875 L 31.125 -38.21875 L 20.3125 -38.21875 L 20.3125 -15.265625 C 20.3125 -12.441406 20.984375 -10.535156 22.328125 -9.546875 C 23.671875 -8.554688 26.25 -8.0625 30.0625 -8.0625 L 31.421875 -8.0625 L 31 0.515625 Z M 28.15625 0.515625 "/></g></g></g><g fill="#d9d9d9" fill-opacity="1"><g transform="translate(149.311301, 351.64217)"><g><path d="M 16.796875 -27.609375 L 33.171875 -27.609375 L 33.171875 -32.953125 C 33.171875 -35.691406 32.066406 -37.375 29.859375 -38 C 28.703125 -38.34375 26.941406 -38.503906 24.578125 -38.484375 C 22.210938 -38.472656 20.320312 -38.070312 18.90625 -37.28125 C 17.5 -36.488281 16.796875 -34.972656 16.796875 -32.734375 Z M 17.046875 0.21875 C 14.785156 -0.269531 12.75 -1.078125 10.9375 -2.203125 C 7.15625 -4.523438 5.265625 -8.539062 5.265625 -14.25 L 5.265625 -32.015625 C 5.265625 -36.597656 7 -40.160156 10.46875 -42.703125 C 13.945312 -45.253906 18.6875 -46.53125 24.6875 -46.53125 C 37.601562 -46.53125 44.0625 -41.550781 44.0625 -31.59375 L 44.0625 -20.5625 L 16.796875 -20.5625 L 16.796875 -13.140625 C 16.796875 -10.628906 17.414062 -8.984375 18.65625 -8.203125 C 19.90625 -7.429688 22.015625 -7.046875 24.984375 -7.046875 C 27.953125 -7.046875 29.703125 -7.1875 30.234375 -7.46875 C 31.503906 -8.175781 32.320312 -9.03125 32.6875 -10.03125 C 33.0625 -11.03125 33.273438 -12.351562 33.328125 -14 L 44.03125 -14 C 43.851562 -6.988281 41.375 -2.546875 36.59375 -0.671875 C 33.800781 0.398438 30.410156 0.941406 26.421875 0.953125 C 22.429688 0.960938 19.304688 0.71875 17.046875 0.21875 Z M 17.046875 0.21875 "/></g></g></g><g fill="#ffa500" fill-opacity="1"><g transform="translate(198.049996, 351.64217)"><g><path d="M 8.0625 0 L 8.0625 -62.59375 L 17.515625 -62.59375 L 50.046875 -19.671875 L 50.046875 -62.59375 L 61.25 -62.59375 L 61.25 0 L 51.78125 0 L 19.375 -42.234375 L 19.375 0 Z M 8.0625 0 "/></g></g></g><g fill="#ffa500" fill-opacity="1"><g transform="translate(267.343238, 351.64217)"><g><path d="M 8.0625 0 L 8.0625 -62.59375 L 49.078125 -62.59375 L 49.078125 -53.09375 L 20.609375 -53.09375 L 20.609375 -36.46875 L 45.84375 -36.46875 L 45.84375 -27.390625 L 20.609375 -27.390625 L 20.609375 -9.5 L 49.53125 -9.5 L 49.53125 0 Z M 8.0625 0 "/></g></g></g><g fill="#ffa500" fill-opacity="1"><g transform="translate(322.218057, 351.64217)"><g><path d="M 19.046875 0 L 19.046875 -53.015625 L 1.609375 -53.015625 L 1.609375 -62.59375 L 49.03125 -62.59375 L 49.03125 -53.015625 L 31.59375 -53.015625 L 31.59375 0 Z M 19.046875 0 "/></g></g></g></svg>