<svg xmlns="http://www.w3.org/2000/svg" xmlns:xlink="http://www.w3.org/1999/xlink" width="500" zoomAndPan="magnify" viewBox="0 0 375 374.999991" height="500" preserveAspectRatio="xMidYMid meet" version="1.0"><defs><clipPath id="9e3475a488"><path d="M 4.042969 203.003906 L 89.167969 203.003906 L 89.167969 313.339844 L 4.042969 313.339844 Z M 4.042969 203.003906 " clip-rule="nonzero"/></clipPath><clipPath id="91b7ac947a"><path d="M 21.292969 203.003906 L 71.917969 203.003906 C 81.445312 203.003906 89.167969 210.726562 89.167969 220.253906 L 89.167969 296.089844 C 89.167969 305.617188 81.445312 313.339844 71.917969 313.339844 L 21.292969 313.339844 C 11.769531 313.339844 4.042969 305.617188 4.042969 296.089844 L 4.042969 220.253906 C 4.042969 210.726562 11.769531 203.003906 21.292969 203.003906 Z M 21.292969 203.003906 " clip-rule="nonzero"/></clipPath><clipPath id="e2e8e59461"><path d="M 98.429688 148.648438 L 183.554688 148.648438 L 183.554688 313.746094 L 98.429688 313.746094 Z M 98.429688 148.648438 " clip-rule="nonzero"/></clipPath><clipPath id="de146976cb"><path d="M 115.679688 148.648438 L 166.304688 148.648438 C 175.832031 148.648438 183.554688 156.371094 183.554688 165.898438 L 183.554688 296.496094 C 183.554688 306.023438 175.832031 313.746094 166.304688 313.746094 L 115.679688 313.746094 C 106.152344 313.746094 98.429688 306.023438 98.429688 296.496094 L 98.429688 165.898438 C 98.429688 156.371094 106.152344 148.648438 115.679688 148.648438 Z M 115.679688 148.648438 " clip-rule="nonzero"/></clipPath><clipPath id="10dc513ccc"><path d="M 192.832031 92.667969 L 277.953125 92.667969 L 277.953125 313.339844 L 192.832031 313.339844 Z M 192.832031 92.667969 " clip-rule="nonzero"/></clipPath><clipPath id="687731e72e"><path d="M 210.082031 92.667969 L 260.703125 92.667969 C 270.230469 92.667969 277.953125 100.390625 277.953125 109.917969 L 277.953125 296.089844 C 277.953125 305.617188 270.230469 313.339844 260.703125 313.339844 L 210.082031 313.339844 C 200.554688 313.339844 192.832031 305.617188 192.832031 296.089844 L 192.832031 109.917969 C 192.832031 100.390625 200.554688 92.667969 210.082031 92.667969 Z M 210.082031 92.667969 " clip-rule="nonzero"/></clipPath><clipPath id="31407c57e0"><path d="M 285.832031 37.5 L 370.957031 37.5 L 370.957031 313.746094 L 285.832031 313.746094 Z M 285.832031 37.5 " clip-rule="nonzero"/></clipPath><clipPath id="0170ee2a51"><path d="M 303.082031 37.5 L 353.707031 37.5 C 363.230469 37.5 370.957031 45.222656 370.957031 54.75 L 370.957031 296.496094 C 370.957031 306.023438 363.230469 313.746094 353.707031 313.746094 L 303.082031 313.746094 C 293.554688 313.746094 285.832031 306.023438 285.832031 296.496094 L 285.832031 54.75 C 285.832031 45.222656 293.554688 37.5 303.082031 37.5 Z M 303.082031 37.5 " clip-rule="nonzero"/></clipPath></defs><g clip-path="url(#9e3475a488)"><g clip-path="url(#91b7ac947a)"><path fill="#ffa500" d="M 4.042969 203.003906 L 89.167969 203.003906 L 89.167969 313.339844 L 4.042969 313.339844 Z M 4.042969 203.003906 " fill-opacity="1" fill-rule="nonzero"/></g></g><g clip-path="url(#e2e8e59461)"><g clip-path="url(#de146976cb)"><path fill="#d9d9d9" d="M 98.429688 148.648438 L 183.554688 148.648438 L 183.554688 313.746094 L 98.429688 313.746094 Z M 98.429688 148.648438 " fill-opacity="1" fill-rule="nonzero"/></g></g><g clip-path="url(#10dc513ccc)"><g clip-path="url(#687731e72e)"><path fill="#d9d9d9" d="M 192.832031 92.667969 L 277.953125 92.667969 L 277.953125 313.339844 L 192.832031 313.339844 Z M 192.832031 92.667969 " fill-opacity="1" fill-rule="nonzero"/></g></g><g clip-path="url(#31407c57e0)"><g clip-path="url(#0170ee2a51)"><path fill="#d9d9d9" d="M 285.832031 37.5 L 370.957031 37.5 L 370.957031 313.746094 L 285.832031 313.746094 Z M 285.832031 37.5 " fill-opacity="1" fill-rule="nonzero"/></g></g></svg>