<!DOCTYPE svg PUBLIC "-//W3C//DTD SVG 1.1//EN" "http://www.w3.org/Graphics/SVG/1.1/DTD/svg11.dtd">
<!-- Uploaded to: SVG Repo, www.svgrepo.com, Transformed by: SVG Repo Mixer Tools -->
<svg width="800px" height="800px" viewBox="0 0 32 32" id="icon" xmlns="http://www.w3.org/2000/svg" fill="#000000">
<g id="SVGRepo_bgCarrier" stroke-width="0"/>
<g id="SVGRepo_tracerCarrier" stroke-linecap="round" stroke-linejoin="round"/>
<g id="SVGRepo_iconCarrier">
<defs>
<style>.cls-1{fill:#cd4242;}.cls-2{fill:none;}</style>
</defs>
<title>center--circle</title>
<path class="cls-1" d="M30,15H27.9492A12.0071,12.0071,0,0,0,17,4.0508V2H15V4.0508A12.0071,12.0071,0,0,0,4.0508,15H2v2H4.0508A12.0071,12.0071,0,0,0,15,27.9492V30h2V27.9492A12.0071,12.0071,0,0,0,27.9492,17H30ZM17,25.9492V22H15v3.9492A10.0166,10.0166,0,0,1,6.0508,17H10V15H6.0508A10.0166,10.0166,0,0,1,15,6.0508V10h2V6.0508A10.0166,10.0166,0,0,1,25.9492,15H22v2h3.9492A10.0166,10.0166,0,0,1,17,25.9492Z"/>
<rect id="_Transparent_Rectangle_" data-name="&lt;Transparent Rectangle&gt;" class="cls-2" width="32" height="32"/>
</g>
</svg>